<?xml version="1.0" encoding="utf-8"?>
<!-- Generator: Adobe Illustrator 16.0.0, SVG Export Plug-In . SVG Version: 6.00 Build 0)  -->
<!DOCTYPE svg PUBLIC "-//W3C//DTD SVG 1.1//EN" "http://www.w3.org/Graphics/SVG/1.1/DTD/svg11.dtd">
<svg version="1.1" id="Layer_1" xmlns="http://www.w3.org/2000/svg" xmlns:xlink="http://www.w3.org/1999/xlink" x="0px" y="0px"
	 width="20px" height="20px" viewBox="0 0 20 20" enable-background="new 0 0 20 20" xml:space="preserve">
<g id="Ajuda">
	<g>
		<path fill="#492A5D" stroke="#FFFFFF" stroke-width="0.25" stroke-miterlimit="22.9256" d="M17.358,10
			c0-4.064-3.294-7.358-7.358-7.358S2.642,5.936,2.642,10c0,4.063,3.294,7.358,7.358,7.358S17.358,14.063,17.358,10z"/>
		<path fill="#FFFFFF" stroke="#FFFFFF" stroke-width="0.25" stroke-miterlimit="22.9256" d="M6.741,7.79
			c0-0.412,0.133-0.831,0.397-1.254C7.404,6.112,7.791,5.761,8.3,5.483C8.808,5.205,9.4,5.066,10.078,5.066
			c0.63,0,1.187,0.116,1.669,0.348c0.481,0.233,0.854,0.549,1.117,0.948c0.263,0.4,0.395,0.834,0.395,1.303
			c0,0.37-0.075,0.694-0.225,0.972c-0.15,0.278-0.329,0.518-0.535,0.72s-0.575,0.542-1.111,1.02
			c-0.147,0.135-0.266,0.253-0.354,0.355c-0.089,0.102-0.155,0.195-0.199,0.279c-0.044,0.085-0.077,0.17-0.102,0.255
			c-0.023,0.085-0.059,0.233-0.107,0.446c-0.081,0.451-0.34,0.678-0.775,0.678c-0.226,0-0.416-0.074-0.569-0.222
			c-0.155-0.147-0.232-0.367-0.232-0.657c0-0.365,0.057-0.682,0.17-0.949c0.113-0.268,0.263-0.502,0.449-0.705
			c0.188-0.202,0.439-0.442,0.757-0.72c0.277-0.243,0.479-0.427,0.604-0.551c0.122-0.124,0.228-0.262,0.312-0.414
			c0.086-0.153,0.127-0.317,0.127-0.496c0-0.348-0.129-0.641-0.388-0.88c-0.258-0.239-0.592-0.358-1-0.358
			c-0.478,0-0.83,0.121-1.057,0.362C8.796,7.044,8.604,7.4,8.449,7.869C8.302,8.36,8.021,8.605,7.608,8.605
			c-0.243,0-0.449-0.086-0.616-0.257C6.825,8.176,6.741,7.99,6.741,7.79z M9.921,14.933c-0.265,0-0.496-0.086-0.693-0.257
			s-0.296-0.411-0.296-0.72c0-0.273,0.094-0.504,0.286-0.691c0.19-0.187,0.426-0.28,0.703-0.28c0.274,0,0.504,0.094,0.691,0.28
			c0.188,0.188,0.281,0.418,0.281,0.691c0,0.304-0.099,0.543-0.294,0.717C10.403,14.847,10.178,14.933,9.921,14.933z"/>
	</g>
</g>
</svg>
