<?xml version="1.0" encoding="utf-8"?>
<!-- Generator: Adobe Illustrator 16.0.0, SVG Export Plug-In . SVG Version: 6.00 Build 0)  -->
<!DOCTYPE svg PUBLIC "-//W3C//DTD SVG 1.1//EN" "http://www.w3.org/Graphics/SVG/1.1/DTD/svg11.dtd">
<svg version="1.1" id="Camada_1" xmlns="http://www.w3.org/2000/svg" xmlns:xlink="http://www.w3.org/1999/xlink" x="0px" y="0px"
	 width="612px" height="792px" viewBox="0 0 612 792" enable-background="new 0 0 612 792" xml:space="preserve">
<g transform="translate(-114.78 433.39)">
	<g transform="translate(-42.426 135.76)">
		<path fill="#486D88" stroke="#FFDAAA" stroke-width="18" d="M385.92-508.004c-15.007,0-36.782,1.934-52.841,8.301
			c-0.034,0.034-0.066,0.067-0.101,0.101c-26.643,10.797-43.823,31.348-57.5,50.82c-13.677,19.471-24.756,38.241-36.645,49.2
			c-21.513,19.828-64.071,62.86-65.396,160.453c-0.804,59.27,14.982,147.161,62.663,202.561c1.269,1.475,1.526,3.695,3.745,14.173
			c2.219,10.479,6.452,26.053,17.918,47.071c23.14,42.424,76.978,105.475,138.18,131.196l0.709,0.303
			c1.678,0.766,3.444,1.466,5.364,2.126c6.278,2.16,12.972,3.341,19.842,3.341c16.562,0,27.876-8.814,37.152-15.995
			c2.473-1.914,2.219-2.072,4.252-3.847c2.031,1.772,1.777,1.933,4.25,3.847c9.275,7.181,20.59,15.995,37.152,15.995
			c6.869,0,13.563-1.181,19.842-3.341c1.922-0.66,3.688-1.36,5.364-2.126l0.202-0.103l0.507-0.2
			c61.209-25.727,114.949-88.793,138.08-131.196c11.465-21.021,15.698-36.595,17.918-47.071c2.218-10.477,2.477-12.698,3.744-14.173
			c47.682-55.399,63.467-143.291,62.663-202.563c-1.323-97.582-43.762-140.605-65.294-160.452
			c-11.896-10.965-23.044-29.831-36.747-49.3c-13.704-19.47-30.861-39.922-57.5-50.716c-0.032-0.034-0.065-0.067-0.102-0.101
			c-16.027-6.355-37.734-8.301-52.74-8.301c-23.344,0-43.754,12.767-60.129,24.195c-6.924,4.831-12.428,9.293-17.21,13.261
			c-4.781-3.968-10.285-8.43-17.209-13.261C429.678-495.233,409.269-508,385.926-508L385.92-508.004z"/>
		<path fill="#486D88" stroke="#FFDAAA" stroke-width="18" d="M504.708,145.447c5.055,0,9.982-0.85,14.578-2.43
			c1.531-0.526,2.994-1.139,4.454-1.822c55.338-22.976,109.536-85.531,130.688-124.312c21.438-39.309,14.187-52.938,23.688-63.979
			c43.017-49.979,59.473-135.97,58.714-191.833c-1.266-93.281-38.837-129.08-60.13-148.708
			c-29.312-27.015-44.854-78.973-89.284-96.981c-11.001-4.362-34.188-7.188-46.771-7.188c-32.525,0-77.339,42.617-77.339,42.617
			s-44.813-42.617-77.342-42.617c-12.578,0-35.868,2.825-46.869,7.188c-44.433,18.007-59.874,69.964-89.186,96.981
			c-21.295,19.627-58.967,55.426-60.232,148.708c-0.759,55.863,15.698,141.854,58.715,191.833
			c9.502,11.042,2.249,24.673,23.688,63.979c21.152,38.776,75.452,101.335,130.791,124.312c1.459,0.686,2.923,1.296,4.454,1.822
			c4.595,1.58,9.523,2.43,14.577,2.43c17.422,0,41.402-25.308,41.402-25.308S487.287,145.447,504.708,145.447z"/>
		<path fill="#486D88" stroke="#FFDAAA" stroke-width="18" stroke-linecap="round" d="M463.277-431.851v263.201 M463.277-102.851
			V3.44"/>
		<path fill="#486D88" stroke="#FFDAAA" stroke-width="18" stroke-linecap="round" stroke-linejoin="round" d="M641.833-54.23
			c-15.896-21.001-40.338-35.328-66.428-38.938c-17.754-2.457-36.155-0.059-52.684,6.87c8.818-2.3,16.817-7.633,22.334-14.889
			c4.295-5.649,7.088-12.434,8.018-19.471"/>
		<path fill="#486D88" stroke="#FFDAAA" stroke-width="18" stroke-linecap="round" stroke-linejoin="round" d="M634.544-122.16
			c10.46-8.843,18.063-21.015,21.424-34.292c3.361-13.279,2.464-27.602-2.527-40.354c-5.648-14.432-16.546-26.745-30.185-34.105
			c-0.063,4.688-1.077,9.362-2.966,13.656c-4.681,10.644-14.972,18.619-26.443,20.498"/>
		<path fill="#486D88" stroke="#FFDAAA" stroke-width="18" stroke-linecap="round" stroke-linejoin="round" d="M632.924-332.72
			c-10.795,2.492-22.486,0.865-32.19-4.48c-9.703-5.345-17.328-14.358-20.99-24.813c-3.46-9.876-3.37-20.955,0.247-30.775
			c3.618-9.819,10.739-18.308,19.779-23.578c-11.155,9.224-25.753,14.181-40.218,13.658c-10.15-0.368-20.193-3.379-28.873-8.657"/>
		<path fill="#486D88" stroke="#FFDAAA" stroke-width="18" stroke-linecap="round" stroke-linejoin="round" d="M515.981,48.621
			c9.091,3.836,19.082,5.513,28.926,4.854c14.912-0.997,29.396-7.461,40.099-17.895c10.7-10.435,17.528-24.75,18.902-39.632
			c-3.646,2.928-7.735,5.302-12.085,7.021c-9.944,3.93-21.251,4.311-31.438,1.059s-19.182-10.111-25.01-19.078"/>
		<path fill="#486D88" stroke="#FFDAAA" stroke-width="18" stroke-linecap="round" stroke-linejoin="round" d="M674.13-259.931
			c-16.596-13.228-38.055-20.208-59.255-19.274c-21.202,0.934-41.964,9.773-57.332,24.41c-13.022,12.401-22.14,28.854-25.751,46.473
			c3.387-8.462,3.846-18.064,1.279-26.813c-1.997-6.811-5.797-13.085-10.906-18.011"/>
		<path fill="#486D88" stroke="#FFDAAA" stroke-width="18" stroke-linecap="round" stroke-linejoin="round" d="M284.689-54.23
			c15.896-21.001,40.338-35.328,66.428-38.938c17.753-2.457,36.154-0.059,52.683,6.87c-8.819-2.3-16.818-7.633-22.333-14.889
			c-4.296-5.649-7.089-12.434-8.019-19.471"/>
		<path fill="#486D88" stroke="#FFDAAA" stroke-width="18" stroke-linecap="round" stroke-linejoin="round" d="M292.01-122.16
			c-10.459-8.843-18.063-21.015-21.425-34.292c-3.359-13.279-2.463-27.602,2.529-40.354c5.649-14.432,16.546-26.745,30.184-34.105
			c0.063,4.688,1.077,9.362,2.966,13.656c4.68,10.644,14.971,18.619,26.442,20.498"/>
		<path fill="#486D88" stroke="#FFDAAA" stroke-width="18" stroke-linecap="round" stroke-linejoin="round" d="M293.63-332.72
			c10.795,2.492,22.487,0.865,32.191-4.48c9.703-5.345,17.328-14.358,20.99-24.813c3.46-9.876,3.37-20.955-0.248-30.775
			c-3.618-9.819-10.738-18.308-19.779-23.578c11.155,9.224,25.753,14.181,40.218,13.658c10.15-0.368,20.194-3.379,28.873-8.657"/>
		<path fill="#486D88" stroke="#FFDAAA" stroke-width="18" stroke-linecap="round" stroke-linejoin="round" d="M410.572,48.621
			c-9.09,3.836-19.082,5.513-28.926,4.854c-14.911-0.997-29.397-7.461-40.097-17.895c-10.7-10.435-17.529-24.75-18.903-39.632
			c3.646,2.928,7.735,5.302,12.085,7.021c9.944,3.93,21.251,4.311,31.438,1.059s19.181-10.111,25.01-19.078"/>
		<path fill="#486D88" stroke="#FFDAAA" stroke-width="18" stroke-linecap="round" stroke-linejoin="round" d="M252.393-259.931
			c16.595-13.228,38.053-20.208,59.255-19.274c21.201,0.934,41.963,9.773,57.33,24.41c13.023,12.401,22.14,28.854,25.751,46.473
			c-3.386-8.462-3.844-18.064-1.279-26.813c1.997-6.811,5.797-13.085,10.906-18.011"/>
	</g>
</g>
</svg>
