<?xml version="1.0" encoding="UTF-8"?>
<!DOCTYPE svg PUBLIC "-//W3C//DTD SVG 1.1//EN" "http://www.w3.org/Graphics/SVG/1.1/DTD/svg11.dtd">
<!-- Creator: CorelDRAW 2017 -->
<svg xmlns="http://www.w3.org/2000/svg" xml:space="preserve" width="217mm" height="194mm" version="1.1" style="shape-rendering:geometricPrecision; text-rendering:geometricPrecision; image-rendering:optimizeQuality; fill-rule:evenodd; clip-rule:evenodd"
viewBox="0 0 21700 19400"
 xmlns:xlink="http://www.w3.org/1999/xlink">
 <defs>
  <style type="text/css">
   <![CDATA[
    .fil0 {fill:#FEFEFE}
   ]]>
  </style>
 </defs>
 <g id="Camada_x0020_1">
  <metadata id="CorelCorpID_0Corel-Layer"/>
  <g id="_2448725391840">
   <g>
    <path class="fil0" d="M20169.56 8053.21l32.78 7.17 -14052.24 0 4417.51 -4427.24c216.32,-216.15 334.98,-508.95 334.98,-816.27 0,-307.32 -118.66,-598.07 -334.98,-814.73l-687.37 -687.71c-216.15,-216.15 -504.17,-335.66 -811.32,-335.66 -307.32,0 -595.51,118.66 -811.66,334.8l-7572.46 7571.78c-217,217 -335.65,506.05 -334.8,813.54 -0.85,309.2 117.8,598.41 334.8,815.07l7572.46 7572.46c216.15,215.98 504.17,334.8 811.66,334.8 307.15,0 595.17,-119 811.32,-334.8l687.37 -687.71c216.32,-215.8 334.98,-504 334.98,-811.32 0,-307.15 -118.66,-580.15 -334.98,-796.12l-4467.37 -4451.99 14085.03 0c632.9,0 1164.73,-545.49 1164.73,-1178.05l0 -972.66c0,-632.56 -547.54,-1135.36 -1180.44,-1135.36z"/>
   </g>
  </g>
  <g id="_2448725391616">
  </g>
  <g id="_2448725393344">
  </g>
  <g id="_2448725392544">
  </g>
  <g id="_2448725393152">
  </g>
  <g id="_2448725391776">
  </g>
  <g id="_2448725389856">
  </g>
  <g id="_2448725391232">
  </g>
  <g id="_2448725390656">
  </g>
  <g id="_2448725391200">
  </g>
  <g id="_2448725390240">
  </g>
  <g id="_2448725389664">
  </g>
  <g id="_2448725389696">
  </g>
  <g id="_2448725389888">
  </g>
  <g id="_2448725387680">
  </g>
  <g id="_2448725387424">
  </g>
 </g>
</svg>
