<?xml version="1.0" encoding="UTF-8"?>
<!DOCTYPE svg PUBLIC "-//W3C//DTD SVG 1.1//EN" "http://www.w3.org/Graphics/SVG/1.1/DTD/svg11.dtd">
<!-- Creator: CorelDRAW 2017 -->
<svg xmlns="http://www.w3.org/2000/svg" xml:space="preserve" width="150mm" height="150mm" version="1.1" style="shape-rendering:geometricPrecision; text-rendering:geometricPrecision; image-rendering:optimizeQuality; fill-rule:evenodd; clip-rule:evenodd"
viewBox="0 0 15000 15000"
 xmlns:xlink="http://www.w3.org/1999/xlink">
 <defs>
  <style type="text/css">
   <![CDATA[
    .fil0 {fill:black}
   ]]>
  </style>
 </defs>
 <g id="Camada_x0020_1">
  <metadata id="CorelCorpID_0Corel-Layer"/>
  <g id="_1827691168480">
   <g>
    <g>
     <path class="fil0" d="M1225.36 13740.86c134.29,322.4 449.35,532.41 798.38,532.41l10952.4 0c477.63,0 864.75,-387 864.75,-864.87l0.01 -2593.79c0,-477.63 -387,-864.75 -864.75,-864.75 -477.75,0 -864.87,387 -864.87,864.75l0 1729.15 -8009.72 0.01 3960.55 -3986.82c317.08,-319.33 336.48,-828.67 44.13,-1170.83l-4207.59 -4930 8212.86 0 0 576.42c0,477.63 387,864.64 864.87,864.64 477.87,0 864.75,-387 864.75,-864.64l0 -1441.06c0,-477.63 -387,-864.75 -864.75,-864.75l-10952.64 0c-337.31,0 -643.86,196.28 -785.13,502.71 -141.27,306.43 -91.34,666.93 127.42,923.44l4908.12 5750.51 -4863.75 4895.82c-246.21,247.74 -319.09,619.13 -185.04,941.65z" data-original="#000000" data-old_color="#000000"/>
    </g>
   </g>
  </g>
 </g>
</svg>
